<svg xmlns="http://www.w3.org/2000/svg" viewBox="0 0 64 64">
  <circle cx="32" cy="32" r="30" fill="#25D366"/>
  <path fill="#fff" d="M45.5 37.9c-.7-.4-4.1-2-4.8-2.2-.6-.2-1.1-.4-1.6.4-.5.7-1.8 2.2-2.2 2.7-.4.5-.8.5-1.5.2-.7-.4-2.9-1.1-5.5-3.4-2-1.8-3.4-4-3.8-4.7-.4-.7 0-1.1.3-1.5.3-.3.7-.8 1.1-1.2.4-.4.5-.7.7-1.2.2-.5.1-.9-.1-1.2-.2-.4-1.6-3.8-2.2-5.2-.6-1.4-1.2-1.2-1.6-1.2h-1.4c-.5 0-1.2.2-1.9.9-.6.7-2.5 2.5-2.5 6s2.6 6.9 3 7.4c.4.5 5.1 7.8 12.4 10.9 1.7.7 3.1 1.2 4.1 1.5 1.7.5 3.3.4 4.6.3 1.4-.2 4.1-1.7 4.7-3.3.6-1.6.6-3 .4-3.3-.2-.3-.6-.5-1.3-.9z"/>
</svg>
